<?xml version="1.0" encoding="UTF-8" standalone="no"?>
<svg xmlns:rdf="http://www.w3.org/1999/02/22-rdf-syntax-ns#" xmlns="http://www.w3.org/2000/svg" height="307pt" width="274pt" version="1.1" xmlns:cc="http://creativecommons.org/ns#" xmlns:dc="http://purl.org/dc/elements/1.1/" viewBox="0 0 274.40625 306.77734">
 <g style="">
  <path d="m86.7 47.3h0.535c-7.07 15.9-11.6 34.1-11.6 53.8s4.56 37.8 11.6 53.8h-0.535c-10.4-16-17.1-34-17.1-54 0-19.7 6.78-38.1 17.1-53.8zm42.2 155 1.66-1.94c-21.9-18.2-47.2-53.9-47.2-99.1 0-45.3 25.2-80.9 47.2-99.1l-2-2c-34.2 16-67.2 56-67.2 101 0 4.46 0.32 8.88 0.941 13.2 5.62 39.5 35.5 73.4 66.2 87.8" fill="#c28c19"/>
  <path d="m188 47.3c10.4 15.6 17.1 34.1 17.1 53.8s-6.79 38.1-17.1 53.8h-0.539c7.07-15.9 11.6-34.1 11.6-53.8s-4.56-37.8-11.6-53.8zm3.29 53.8c0 45.3-25.2 80.9-47.2 99.1l1.66 1.94c34.1-16 67.2-56 67.2-101 0-45.1-33.1-85.1-67.2-101l-1.66 1.95c21.9 18.2 47.2 53.9 47.2 99.1" fill="#c28c19"/>
  <g fill="#130c0e">
   <path d="m21.6 237c0-1.47 1.18-2.21 3.15-2.21h1.32c1.97 0 3.15 0.734 3.15 2.21v9.47c0 1.47-1.18 2.21-3.15 2.21h-1.32c-1.97 0-3.15-0.734-3.15-2.21zm3.15 15h1.32c5.33 0 7.15-2.32 7.15-4.79v-10.9c0-2.47-1.82-4.8-7.15-4.8h-1.32c-5.32 0-7.15 2.32-7.15 4.8v10.9c0 2.47 1.82 4.79 7.15 4.79"/>
   <path d="m7.14 252h1.1v-0.008c5.28-0.0195 6.86-2.33 6.86-4.79v-2.56h-3.85v1.86c0 1.47-1.03 2.21-3 2.21h-1.1c-1.97 0-3.15-0.738-3.15-2.21v-9.47c0-1.47 1.18-2.21 3.15-2.21h1.1v0.004c1.97 0 3 0.738 3 2.21v1.44h3.85v-2.15c0-2.46-1.58-4.77-6.86-4.79v-0.004h-1.1c-5.22 0-7.04 3-7.04 5v10.9c0 2.48 1.82 4.8 7.14 4.8"/>
   <path d="m86.9 245h-3.29v3.45h-6.62v-4.96h5.36v-3.32h-5.36v-5.13h6.62v3.45h3.29v-6.74h-15.9v3.29h2.03v13.4h-2.03v3.29h15.9v-6.74"/>
   <path d="m106 248v3.29h15.9v-6.74h-3.3v3.45h-6.63v-4.96h5.36v-3.32h-5.36v-5.13h6.63v3.45h3.3v-6.74h-15.9v3.29h2.03v13.4h-2.03"/>
   <path d="m51.2 245h-3.3v3.54h-6.46v-13.4h2.03v-3.29h-8.04v3.29h2.03v13.4h-2.03v3.3h15.8v-6.83"/>
   <path d="m68.8 245h-3.29v3.54h-6.47v-13.4h2.03v-3.29h-8.03v3.29h2.03v13.4h-2.03v3.3h15.8v-6.83"/>
   <path d="m104 238v-1.91c0-2.47-1.59-4.8-6.91-4.8h-1.1c-5.33 0-7.15 2.32-7.15 4.8v10.9c0 2.48 1.82 4.8 7.15 4.8h1.1c5.32 0 6.91-2.32 6.91-4.8v-5.94h-7.13v3.3h3.28v1.97c0 1.44-1.03 2.17-3 2.18h-1.16c-1.98 0-3.15-0.734-3.15-2.21v-9.47c0-1.47 1.18-2.21 3.15-2.21h1.15c1.97 0 3 0.734 3 2.21v1.21h3.85"/>
   <path d="m152 246v-9.47c0-1.47 1.18-2.21 3.15-2.21h1.32c1.97 0 3.15 0.734 3.15 2.21v9.47c0 1.48-1.18 2.21-3.15 2.21h-1.32c-1.97 0-3.15-0.734-3.15-2.21zm4.47 5.5c5.32 0 7.15-2.32 7.15-4.79v-10.9c0-2.47-1.82-4.8-7.15-4.8h-1.32c-5.33 0-7.15 2.32-7.15 4.8v10.9c0 2.47 1.82 4.79 7.15 4.79h1.32"/>
   <path d="m170 246v-9.47c0-1.47 1.18-2.21 3.15-2.21h1.32c1.97 0 3.15 0.734 3.15 2.21v9.47c0 1.48-1.18 2.21-3.15 2.21h-1.32c-1.97 0-3.15-0.734-3.15-2.21zm4.47 5.5c5.32 0 7.15-2.32 7.15-4.79v-10.9c0-2.47-1.82-4.8-7.15-4.8h-1.32c-5.32 0-7.15 2.32-7.15 4.8v10.9c0 2.47 1.82 4.79 7.15 4.79h1.32"/>
   <path d="m257 245h-3.29v3.54h-6.47v-13.4h2.03v-3.3h-8.03v3.3h2.03v13.4h-2.03v3.3h15.8v-6.84"/>
   <path d="m274 245h-3.3v3.54h-6.46v-13.4h2.03v-3.3h-8.03v3.3h2.03v13.4h-2.03v3.3h15.8v-6.84"/>
   <path d="m214 237v0.91c0 1.5-0.465 2.21-2.35 2.21h-3.48v-5h3.39c1.97 0 2.44 0.41 2.44 1.88zm0.941 8.15v1.21c0 1.47-0.496 2.18-2.47 2.18h-4.3v-5.41h4.3c1.97 0 2.47 0.766 2.47 2.03zm-12.8-13.3v3.3h2.03v13.4h-2.03v3.3h10.3c5.33 0 6.38-2.18 6.38-4.65v-2.32c0-1.62-1.12-2.86-3.12-3.56 1.54-0.707 2.21-1.86 2.21-3.29v-1.74c0-2.47-1.06-4.45-6.38-4.45h-9.39"/>
   <path d="m201 238v-6.74h-17.9v6.74h3.29v-3.44h3.68v13.4h-2.04v3.3h8.04v-3.3h-2.03v-13.4h3.68v3.44h3.29"/>
   <path d="m229 236c0.0117 0.18 1.17 3.71 2.36 7.33h-4.76c1.21-3.62 2.37-7.15 2.4-7.33zm-2.32 12.8h-1.91c0.234-0.691 0.492-1.48 0.777-2.33h6.86c0.277 0.848 0.543 1.64 0.77 2.33h-1.91v3.3h7.29v-3.3h-1.43l-6.09-16.7h-3.89l-6.12 16.7h-1.64v3.3h7.3v-3.3"/>
   <path d="m130 248v3.3h8.5v-3.3h-2.5v-4.96h5.36v-3.32h-5.36v-5.13h6.62v3.44h3.3v-6.74h-15.9v3.3h2.03v13.4h-2.03"/>
   <path d="m186 294c0 3.3-2.64 4.95-7.06 4.95h-2.96c-4.42 0-7.06-1.65-7.06-4.95v-21.2c0-3.3 2.64-4.95 7.06-4.95h2.96c4.42 0 7.06 1.65 7.06 4.95zm8.97 1.59v-24.4c0-5.55-4.09-10.8-16-10.8h-2.96c-11.9 0-16 5.21-16 10.8v24.4c0 5.54 4.09 10.8 16 10.8h2.96c11.9 0 16-5.21 16-10.8"/>
   <path d="m274 276v-15.1h-35.7v7.39h4.55v30.1h-4.55v7.39h19.1v-7.39h-5.6v-11.1h12v-7.46h-12v-11.5h14.9v7.72h7.39"/>
   <path d="m38.8 299v7.39h35.3v-15.3h-7.39v7.92h-14.5v-30.1h4.55v-7.39h-18v7.39h4.55v30.1h-4.55"/>
   <path d="m100 270c0.0352 0.41 2.62 8.3 5.3 16.4h-10.7c2.71-8.12 5.32-16 5.38-16.4zm-5.21 28.7h-4.27c0.516-1.55 1.11-3.32 1.74-5.21h15.4c0.625 1.89 1.22 3.66 1.74 5.21h-4.29v7.39h16.4v-7.39h-3.21l-13.7-37.5h-8.74l-13.7 37.5h-3.68v7.39h16.4v-7.39"/>
   <path d="m13.5 269h6.53c4.42 0 7.12 1.64 7.12 4.95v5.8c0 3.23-2.71 4.89-7.12 4.89h-6.53zm4.55 30.1h-4.55v-7.06h6.53c11.9 0 16-5.21 16-10.8v-8.91c0-5.54-4.03-10.8-16-10.8h-20v7.39h4.55v30.1h-4.55v7.39h18v-7.39"/>
   <path d="m115 269h4.71l12.2 21.4v8.71h-4.52v7.39h18v-7.39h-4.52v-9.76l12-20.3h5.4v-7.39h-18v7.39h3.77c-3.23 5.38-7.59 12.6-7.63 12.8-0.043-0.164-4.08-7.42-7.08-12.8h3.74v-7.39h-18v7.39"/>
   <path d="m235 276v-15.1h-35.7v7.39h4.55v30.1h-4.55v7.39h19.1v-7.39h-5.61v-11.1h12v-7.46h-12v-11.5h14.9v7.72h7.39"/>
   <path d="m123 71.8h29.3v7.25h-29.3z"/>
   <path d="m152 96.1v-7.24h-29.3v7.24z"/>
   <path d="m152 113v-7.25h-29.3v7.25z"/>
   <path d="m152 130v-7.25h-29.3v7.25z"/>
  </g>
 </g>
</svg>
